<svg xmlns="http://www.w3.org/2000/svg" viewBox="0 0 2646 2806"><path d="M347 10h10l24 15 24 15 24 15 24 15 24 15 24 15 24 15 24 15 24 15 7 4v-2h4l1-6 17-28 17-28 17-28 15-25 5-8h10l1 1v10l-18 30-5 8-2 9-14 22-15 24-15 24-3 5v2l18 11 19 12 24 15 16 10v2l5 2 19 12 24 15 24 15 19 12 24 15 24 15 19 12 24 15 24 15 19 12 24 15 24 15 19 12 24 15 24 15 11 7 2 4 20 12 17 11 15 10 6 4 7 2 22 14 24 15 19 12 24 15 24 15 19 12 24 15 24 15 19 12 24 15 24 15 19 12 24 15 19 12 24 15 24 15 19 12 8 5 1 3 19 12v10l-1 1h-10l-24-15-24-15-19-12-24-15-24-15-19-12-24-15-24-15-24-15-19-12-24-15-24-15-13-8-7 10-11 18-12 19-15 24v8l5 2 5 3v10l-1 1h-6v7l-1 1h-10l-3-1-14 22-11 18 13 1 1 1v10l-15 24-15 24-12 19-15 24-15 24-15 24-12 19-15 24-15 24-15 24-9 14-3 5h-10l-7-4v-2l-5-2-6-3-6-3v-2l-5-1-1-2-7-3-26-16-22-14-24-15-24-15-19-12-24-15-24-15-11-7v-12l1-1h10l26 16 3 2 2-5 1-1h10l15 9 2-5 12-20 14-22 16-26 12-19h13l1 5h8l1 1v10l-13 21-15 24-15 24-13 21 5 4 26 16 19 12 24 15 19 12 9 5 12-19 15-24 15-24 15-24 13-21 15-24 15-24 15-24 15-24 16-26 12-19 7-12-5-2-24-15-24-15-24-15-22-14h-2l-16 26-15 24-15 24-16 26-12 19h-4v2h-10l-1-1v-10l10-16h-7l-1-1v-10l14-22 11-17 14-22 16-25 6-10-24-15-24-15-24-15-24-15-19-12-14-9-3 3-13 21-15 24-15 24-15 24-15 24-11 17-12 19-5 8h-4l-2 5-15 24-12 19-15 24-4 6-3 7-4 4-6 10h-5v7l-15 24-3 5-2 8-14 22-15 24-15 24-15 24-12 19-12 19-14 22-15 24-15 24-15 24-15 24-15 24-4 7 26 16 19 12 24 15 24 15 24 15 5 3h2l10-16 13-20 11-17 2-5-18-12-26-17-26-17v-10l1-11 1-1h10l26 16 21 13 26 16 4-4 10-16 2-3h10l1 1v10l-11 17-2 4 18 11 7-10 15-24 15-24 15-24 12-19 2-1h10l1 1v10l-16 26-12 19-16 26-12 19-5 8v3l10 6v10l-1 1h-6v10l-1 1h-10l-6-4h-3l-12 20-12 19-11 18 5 4 5 3v10l-1 2 5 2 19 12 24 15 24 15 9 6 10 1 1 1v881l-1 1h-16l-4-1-1 49h9l2 4 1-25 1-1h9l1 1v38l-1 11h167l4 3v9l-1 1H766v69h157l1 1v9l-2 3H766v69h157l1 1v11l-1 1H766v87l-1 1h-9l-1 13h44v-6l1-1h19l1-5h109l1 5h206l1 1v6h17l1 1v9l-3 3H747v32l-3 1v127h7v-13l1-1h645v-109l1-1h9l1 1v109h4v-108l1-1h9l1 1v122h88v-268h-9l-1-1-1-41-1-80v-49l1-1h9l1 1v-347l-1 1h-9l-1-1v-204l3-5h9v-164h-88v179l-1 1h-9l-3-2v-178h-16v179l-1 1h-9l-3-2v-107h-163l-1-1v-9l2-3h13v-52h-140v80h6l1 1v109l-1 1h-6v34h8l1 1v9l-1 1h-8v32h7l2 2v95h290l1 1v24l-1 1h-293l-1-1v-7h-5v13l-1 1h-9l-1-5H962l-3-3v-23l1-1h121v-58H960l-1-1v-9l1-1h121v-60H960l-1-1v-9l1-1h121v-225H972v26l-1 1h-9l-3-2v-325l3-2h9l1 1v68h107v-151H864l-1-1v-9l2-3h214v-6H845l-1-1v-11l1-1h231l1-5-184-1-1-1v-11l1-1h203l9 3v8h282V812l-5-2-26-16-24-15-26-16-3-2v-10l3-2-2-1v-10l1-1h10l24 15 24 15 24 15 1-5h9l1 1v12l5 2 11 7v10l-5 1 1 2v282h19l1 1v14h75l1 1v7h5V744l1-1h9l3 3v753h21l1 1v11l-1 1h-21v1159h42l1 1v9l-1 1h-42v113l-1 1h-11l-1-1v-113h-88v54l-1 1h-9l-1-1v-54h-4v55l-1 1h-9l-1-1v-53H726l-1 5h-11l-1-5h-81l-1 4h-11l-1-4h-72v111l-1 1h-11l-1-1v-122l3-6h9l1 4h72v-28H426l-1-1v-18l2-3h192v-70l1-1h10v-40l1-33 1-1h9l1 1v41l-1 64-1 32-1 1h-7l1 16-1 40h81l-1-19v-471l4-3h6v-17l1-1v-221l-1-1-1-53v-61l1-41H12l-2-2v-9l2-2h710v-5H297l-7-4-24-15-24-15-19-12-24-15-19-12-24-15-24-15-19-12-24-15-19-12-24-15-24-15-11-7v-10l1-1h13l24 15 24 15 24 15 19 12 24 15 24 15 24 15 19 12 24 15 24 15 24 15 19 12 8 5 416 1-1-11v-291H412l-1-1v-11l1-1h309v-148l-5-2-26-16-22-14-24-15-24-15-19-12-24-15-24-15-11-7v-3l-5-2-26-16-19-12-24-15-8-5h-2l-10 16h-2v2h-10l-1-1v-10l8-13-3-1-1-6-4 5-5 8h-10l-1-1v-10l7-11v-2l-18-11v-10l1-1h10l11 7 3 1 2-5 17-26 13-20 13-20 11-17 7-11-5-2-26-16-19-12-24-15-7 10-16 26-12 19-12 19-10 16h-10l-1-1v-10l15-24 15-24 15-24 9-14v-2l-26-16-19-12-24-15-24-15-19-12-24-15-17-11-24-15-24-15-9-5-2 5-3 5h-11l-14 22-12 19-15 24-11 17-15 24-12 19-15 24-15 24-12 19-15 24-15 24-7 11-3 1H11l-1-1v-10l15-24 15-24 15-24 15-24 15-24 15-24 15-24 15-24 15-24 15-24 15-24v-3l-8-5v-12l1-1h11l1-9 1-1h8l1-5 8-1 12-19 15-24 7-10 12-20 11-17 15-24 15-24 15-24 9-14 2-10 14-22 15-24 12-19 15-24 15-24 15-24 12-19h6l2-5 16-26 14-22 15-24 15-24 7-11h2l2-5 12-19 1-10 7-3 5-8 1-8 6-3 16-26 12-19 15-24 6-9v-2l-19-12-24-15-24-15-19-12-24-15-24-15-19-12-24-15-24-15-19-12-1-3-2-1V11Zm237 163-12 19-15 24-15 24 4 6 19 12 8 2 15 10 22 14 17 11 25 16 17 11 25 16 3 1-1 10-5 1-1 8-3 1-1 7-9 1-1 12h-10l-26-16-19-12-24-15-26-16-17-11h-2l-1-4-20-12-10-6-16 26-3 5-2 7-14 22-15 24-12 19-15 24-15 24-15 24-12 19-15 24-15 24 5 4 24 15 6 4h2l11-18 12-19 12-19 15-24 12-19 12-19 15-24 12-19 11-17v-2l4-1 12-20 13-20v-2l10 1 3 3v10l-15 24-15 24-15 24-15 24-12 19-15 24-15 24-15 24-15 24-5 9 10 7 21 13 19 12 24 15 24 15 24 15 24 15 19 12 24 15 24 15 24 15 14 9 3-1 12-20 14-22 15-24 15-24 15-24 12-19 12-19 14-22 15-24 12-19 15-24 7-12h-2l1-10 6-1 1-8 7-1 12-19 15-24 14-22-5-4-19-12-19-12-24-15-19-12-19-12-19-12-17-11h-2l1-10 6-1-5-4-19-12-24-15-24-15-19-12-6-4h-2v-2l-26-16-22-14-22-14Zm-54 102Zm1 1Zm2 1Zm1 1Zm2 1Zm2 1Zm1 1Zm2 1Zm1 1Zm2 1Zm2 1Zm1 1Zm2 1Zm3 2Zm3 2Zm2 1Zm3 2Zm3 2Zm2 1Zm3 2Zm3 2Zm2 1Zm3 2Zm3 2Zm2 1Zm3 2Zm3 2Zm2 1Zm3 2Zm3 2Zm2 1Zm3 2Zm3 2Zm2 1Zm3 2Zm3 2Zm2 1Zm3 2Zm3 2Zm2 1Zm3 2Zm3 2Zm2 1Zm3 2Zm3 2Zm2 1Zm3 2Zm3 2Zm2 1Zm3 2Zm3 2Zm2 1Zm3 2Zm3 2Zm2 1Zm3 2Zm3 2Zm2 1Zm3 2Zm3 2Zm235 12-12 20-14 22-12 19-8 13 5 4 23 14 19 12 24 15 24 15 26 16 19 12 13 8h11l1 1 1 7 19 12 24 15 22 14h2v6l17 11 16 10h8v-2h2l15-24 12-19 15-24 2-5-17-11-24-15-24-15-12-8-22-14-24-15-19-12-24-15-19-12-24-15-24-15-19-12-15-10-5-3Zm-61 98-2 4 11 1-4-4Zm9 5 4 4 4 1-4-4Zm8 5 4 4 4 1-4-4Zm8 5 4 4 4 1-4-4Zm8 5 4 4 4 1-4-4Zm8 5 4 4 4 1-4-4Zm8 5 4 4 4 1-4-4Zm8 5 4 4 4 1-4-4Zm8 5 4 4 4 1-4-4Zm8 5 4 4 4 1-4-4Zm8 5 4 4 4 1-4-4Zm8 5 2 2v-2Zm-582 23-12 20-14 22-12 19-4 6v2h-4l-12 20-12 19-15 24-13 21-15 24-16 26-6 9 1 3 20 12 22 14 24 15 19 12 24 15 24 15 24 15 24 15 24 15 5 2 14-22 15-24 15-24 15-24 15-24 14-22v-2l3-1 12-20 14-22 15-24 2-3v-3l-26-16-24-15-24-15-24-15-24-15-21-13-24-15-24-15-18-11Zm222 139-15 24-15 24-15 24-4 8-12 19-12 19-7 11-1 9-16 25-13 20-16 25-6 10v10l-3 1-2 7-2 2 24 15 19 12 6 4h2v3l15 9 4-4 6-9v-2l11 1h3l12-20 14-22 15-24 15-24 12-19 14-22v-2h8l13-20 15-24 4-6 1-9 13-21-3-3-26-16-19-12-24-15-13-8Zm-56 283Zm-15 24Zm-5 8Zm-5 8Zm-5 8Zm-5 8Zm-5 8Zm-5 8Zm-5 8Zm-5 8Zm-5 8Zm-3 5Zm-2 3Zm-3 5Zm21 14v4l4-2Zm183 12-12 19-15 23-10 15v3l19 12 5-5 12-20 11-17 10-16-5-5-14-9Zm828 9-1 1-75 1-1 16h-11l-1-16h-3l-1 5-301 1v3l7 1 1 1v128l-10 1v23l10 1v11l-10 1v4l10 1v109l-10 1v80h142v-52l-82-1v-11l231-1 1-108h11l1 179h11l1-45v-106l4-3 1-25h11l1 179h88v-170l-2 1h-9v-210Zm-514 178v58h107v-58Zm0 69v138h116v-2l-8-1-1-135Zm271 74v52h138v-52Zm42 71-1 5-41 1v52h138v-58Zm-184 384v2h5l1-2Z"/><path d="M1356 830h11l1 1 1 48v57l-1 1h-10l-1-1-1-24-1-49v-32ZM720 834h10l24 15 21 13 24 15 24 15 24 15 24 15 24 15 24 15 24 15 1 2v10l-1 1h-8v9l-1 1h-15l-24-15-24-15-24-15-19-12-24-15-24-15-24-15-24-15-19-12v-2l-5-2v-11l1-1h10v-10Zm-1 11Zm2 1Zm1 1Zm2 1Zm2 1Zm1 1Zm2 1Zm1 1Zm2 1Zm2 1Zm1 1Zm2 1Zm1 1Zm2 1Zm2 1Zm1 1Zm2 1Zm1 1Zm2 1Zm2 1Zm1 1Zm2 1Zm2 1Zm1 1ZM1230 854h10l1 1v12l1 1v10l-15 24-15 24-15 24-15 24-15 24-10 1-15 24-15 24-7 11h-10l-1-1v-10l15-24 15-24 12-19 15-24 15-24 12-19 15-24 15-24ZM768 1349h124l1 1v11l-1 1H768l-1-1v-11ZM767 1420h125l1 1v9l-2 3H767l-1-1v-11ZM766 1505h9l1 1v164h116l1 1v9l-2 3H776v58h116l1 1v9l-1 1H776v60h116l1 1v9l-1 1H776v72l-1 1h-9l-1-1-1-113-1-1v-233l1-1 1-41ZM764 1898h9l1 1v148h149l2 3v9l-1 1H774v75l-1 1h-9l-1-1v-236ZM457 1903h189l1 1v9l-1 1-43 1-84 1H411l-1-1v-10l1-1ZM1406 1995h11l4 3v243l-5 2h-9l-1-1-8-1-1-1v-242l1-1 7-1ZM413 2061h284l1 1v11l-1 1H413l-1-1v-11ZM1117 2071h276l1 1v11l-1 1h-274l-3-3v-9ZM1117 2085h9l1 1v131l-1 1h-9l-1-1v-131ZM992 2206h116l1 1v9l-1 1H992l-1-1v-9ZM1205 2207h188l1 1v22l-1 1h-188l-1-1v-22ZM764 2208h163l1 1v9l-1 1H764l-1-1v-9ZM560 2212h39l62 1 32 1 1 1v9l-1 1H399l-1-1v-9l1-1 160-1ZM1119 2220h9l1 1v205h262l1 1v9l-5 2 39 1 3 3v9l-1 1h-7v10l-1 1h-210l-1-3h-90l-1-1-11-1-1-1v-17l1-1 12-1-20-1-1-1v-9l1-1h17v-63l-8 1-1 1H994l-1-1v-11l1-1h122v-130Z"/><path d="M995 2222h114l1 1v9l-1 1H995l-1-1v-9ZM399 2371h294l1 1v9l-1 1H399l-1-1v-9ZM827 2472h280l2 3v9l-1 1H827l-1-1v-11ZM649 2492h11l1 1v148l-1 1h-11l-1-1v-148Z"/></svg>