<svg xmlns="http://www.w3.org/2000/svg" width="2646" height="2806"><path d="m662 26 5 2 1 1v5l-14 22-10 16-3 8-16 26-12 19-15 24-5 8-1 3 5 2 19 12 24 15 19 12 24 15 24 15 19 12 24 15 24 15 8 6 19 12 24 15 24 15 19 12 24 15 24 15 19 12 24 15 24 15 19 12 24 15 24 15 19 12 24 15 24 15 10 7 24 15 24 15 24 15 19 12 24 15 24 15 19 12 24 15 24 15 10 7 26 16 19 12 24 15 19 12 24 15 24 15 12 8 2 4v5l-5 3-7-2-19-12-24-15-19-12-24-15-24-15-19-12-24-15-24-15-19-12-24-15-24-15-19-12-24-15-24-15-19-12-24-15-24-15-19-12-10-7-3-2-15 24-15 24-9 15-3 7 17 11 24 15 10 7 4 4 20 12 22 14 19 12 24 15 24 15 24 15 24 15 24 15 19 12 22 14 24 15 24 15 24 15 24 15 24 15 2 2v6l-4 3-1 149-1 3-1 44 6 1 3 3v442l-5 3-5-2-1-1-1-309-1-3v-53l1-54 1-2-7 1-4-1-6 1-3-1-3 4-4 1-5-3v-99h-228v176l-1 9 1 1v6l-5 3H883l-3-1-16-1-5-3v-5l5-4-7-1v86l-3 3-4 1-5-3-1-2-1-81-12 19-15 24-15 24-12 19-15 24-15 24-3 5 94 1 5 3v7l-5 3-11 1 5 3v6l-3 3-3 1h-95l-4-1-4 5-4 1-3-1-1 211 8-1 3-4 3-1h92v-179l3-4 4-1 5 3 1 2 1 113 3-3 4-1 5 3 1 1v66h263v-36l5-3 5 2 1 1v36h249v-60l5-3 5 2 1 1v66h5v-66l3-3 9-2 5 3 1 2 1 32v34h93V748l3-3 4-1 5 3 1 3v749h16l5 3v7l-5 3h-16v1164h10l5 3v7l-5 3h-10v102l-3 3-4 1-5-3-1-1v-102h-88v44l-3 3-4 1-5-3-1-1v-44l-16 1-524-1-3-1H755l-4 1-3-1h-26l-4 1-3-1-19-1-4-2-121-1-4-2-15-1-5-3v-5l5-3h161l-1-55-1-171v-30l1-111 1-54v-51l1-433H301l-9-4-19-12-24-15-19-12-24-15-19-12-24-15-19-12-24-15-24-15-19-12-24-15-12-8-1-1v-5l5-3 7 2 19 12 10 4 19 12 24 15 24 15 24 15 24 15 24 15 24 15 24 15 19 12 16 10 411 1v-241l-4-2v-5l3-3v-222l-6-1-20-12-19-12-24-15-24-15-24-15-19-12-24-15-24-15-24-15-24-15-24-15-19-12-24-15-24-15-24-15-24-15-24-15-24-15-12-8-8-6-24-15-24-15-24-15-24-15-24-15-24-15-4 4-4 1-4-1-2 5-11 18-5 3-5 1-10 16-12 18-3 1-2 5-16 26-12 19-15 24-3 3-4 1-5-3v-5l14-22 15-24 15-24 15-24 15-24 15-24 6-10-10-7v-5l5-3 7 2 5 3 2-5 16-26 14-22 15-24 3-5 1-8 11-17 12-19 12-19 12-19 14-22 5-3h2l2-5 15-24 15-24 15-24 15-24 12-19 15-24 15-24 15-24 15-24 8-13 1-7 14-22 15-24 12-19 15-24 12-19 15-24 15-24 4-5 5-1 16-26 12-19 12-19 15-24 12-19 15-24 7-12-5-2-26-16-19-12-19-12-24-15-24-15-19-12-24-15-24-15-12-8-1-1v-5l5-3 7 2 19 12 24 15 19 12 24 15 24 15 19 12 24 15 24 15 13 8h2l16-26 12-19 15-24 15-24 15-24 6-6Zm-77 143-7 10-12 20-10 16-1 8-13 20 1 3 26 16 19 12 26 16 19 12 9 4 20 12 22 14 24 15 19 12 24 15 12 8 22 14 24 15 24 15 24 15 24 15 24 15 21 13 24 15 24 15 24 15 19 12 4-5 16-26 12-19 11-17 1-4-19-12-24-15-24-15-19-12-24-15-24-15-19-12-24-15-24-15-10-7-24-15-19-12-24-15-24-15-19-12-24-15-24-15-19-12-24-15-24-15-12-8-2-4-24-15Zm-50 86-11 17 2 4v7l-10 15-14 22-8 12-3 7-10 15-11 17-13 20-11 17-13 20-9 14-3 7-13 20-16 25-16 25-12 18-5 5-5 3-1 7-12 19-14 22-2 7-16 26-14 22-15 24-12 19-3 5v10l-10 15-13 20-13 20-13 20-6 9 1 3 9 3 19 12 19 12 24 15 19 12 19 12 24 15 12 8 5 5 19 12 24 15 16 10 9 4 44 29 40 27h3l6-11-19-12-24-15-24-15-24-15-19-12-24-15-24-15-24-15-24-15-12-8-5-5-26-16-7-5v-5l6-2 10 5 22 14 19 12 24 15 24 15 19 12 24 15 19 12 24 15 24 15 19 12 24 15 5 2 11-17 15-24 15-24 15-24 15-24 15-24 15-24 7-10 3-4 7-2 11-17 15-24 15-24 8-12 6-2 4 2v6l-15 24-14 23-13 21-1 3 1 1v8l-6 9 2 4 20 12 19 12 24 15 24 15 24 15 18 11 5-5 10-16 15-23 11-17 11-17 14-21 8-1 1-3-1-1v-8l14-22 15-24 12-19 15-24 12-19 15-24 12-19 15-24 15-24 3-4 7-1-1-4-26-16-24-15-9-6-2-3v-7l1-1 2-12-2-4-26-16-24-15-24-15-3-1-11 17-2 4 24 15 1 1v5l-6 2-10-5-10-6-13 21-12 19-12 19-15 24-12 19-8 12-7 1-12 20-13 20-5 2-4-2v-5l12-19 15-24 15-24 15-24 16-26 12-19 14-22-5-4-19-12-26-16-12-8v-5l6-2 10 5 19 12 26 16 7 4 12-19-1-4-20-12-22-14-24-15-24-15-17-11-17-11-19-12-24-15-19-12-22-14-12-5-22-14-24-15-26-16-19-12Zm475 332-16 26-12 19-12 19-15 24-15 24-15 24-12 19-15 24-15 24-12 19-4 2-12 20-14 22-15 24-3 4-7 1-3 4v3l12 6 19 12 24 15 21 13 24 15 24 15 17 11v5l-6 2-11-5-12 19-15 24-15 24-15 24-6 9-8 1-9 14v9h158l1-131 5-2 4 2 1 131h6l1-175 3-5 3-1 107-1 1-3-134-1-4-2v-7l4-2 374-1v-81l-19-12-24-15-24-15-24-15-24-15-24-15-24-15-24-15-24-15-24-15-24-15-24-15-24-15-19-12-9-6-4-4-24-15-11-7Zm65 6-4 4-6 2-2 7 24 15 24 15 24 15 26 16 19 12 24 15 10 7 20 12 17 11 24 15 24 15 19 12 24 15 19 12 24 15h2v-21l-22-14-24-15-24-15-24-15-24-15-24-15-24-15-19-12-19-12-24-15-19-12-24-15-12-6-22-14Zm323 201v17l5-1 5 3 2 3v-15Zm-1195 7-13 20-11 17-13 20-13 20-13 20-2 3 1 4 26 16 22 14 24 15 19 12 24 15 19 12 24 15 12 8 10 7 20 12 22 14 19 12 24 15 24 15 24 15 5 2 5-10-13-7-24-15-26-16-21-13-17-11v-5l6-2 10 5 24 15 26 16 12 7 4-2 6 1 14 7 3-4 11-17 1-9 14-22 12-19 5-9-11-8-44-29-14-8-22-14-24-15-24-15-19-12-24-15-24-15-19-12-24-15-24-15-24-15Zm447 15-15 24-15 24-15 24-15 24-15 24-15 24-10 16-1 7-6 4-16 26-12 19-15 24-15 24-2 3 1 4 23 14 24 15 26 16 24 15 21 13 24 15 26 16 9 7 17 11v6l-3 2v7l-8 6-6 2 5 5 20 12 19 12 10 6h1l2-6 4-1 4 2 1 10 6-1 1-1 1-8 6-3 12-20 3-4-1-3v-8l14-22 15-24 15-24 12-19 15-24 15-24 15-24 12-19 15-24 15-24 12-19v-2l-24-15-24-15-24-15-24-15-22-14-6-3-4-3-10-4-19-12-19-12-24-15-19-12-24-15-14-9Zm157 80-1 2 4 1Zm3 3 1 2 2-1Zm3 2 1 2 2-1Zm5 3 1 2 2-1Zm3 2 1 2 2-1Zm5 3 1 2 2-1Zm3 2 1 2 2-1Zm5 3 1 2 2-1Zm3 2 1 2 2-1Zm321 1 1 3h228v-3Zm-316 2 1 2 2-1Zm3 2 1 2 2-1Zm5 3 1 2 2-1Zm3 2 1 2 2-1Zm5 3 1 2 2-1Zm3 2 1 2 2-1Zm184 2v169h97l1-85 3-4v-80Zm-179 1 1 2 2-1Zm3 2 1 2 2-1Zm5 3 1 2 2-1Zm3 2 3 3 2-1Zm5 3 1 2 2-1Zm3 2 3 3 2-1Zm5 3 1 2 2-1Zm3 2 3 3 2-1Zm5 3 1 2 2-1Zm3 2 3 3 2-1Zm5 3 1 2 2-1Zm3 2 3 3 2-1Zm5 3 1 2 2-1Zm-439 132-10 12 1 3 20 12 22 14 19 12h2l2-7 3-3 3-5-18-11-19-12-24-15Zm630 19 3 2h38v-2Zm-378 397v240h1l1-90 5-3 5 2 1 1v210l-2 13-5 2-4-2-2-2v58l5 5v96l-5 5v33l5 5v96l-6 7-1 8 136 1 4 2v7l-4 2-136 1v5l6 3 1 1v131l-3 3-3 1-1 317h19l1-192 5-3 5 2 1 2 1 188h239v-123l-44-1-4-2v-7l5-6 3-1 42-1 2-4 4-1 4 2 1 3h134l1-42 2-3 4-1 5 3 1 49 4 3v6l-4 3v122l9 1 54 1 5 3h165l1-141 5-2 4 2 1 141h6v-121l4-4 1-10 3-3 3-1v-401l-7-1-3-2-5 2-4-2v-144l5-2 5 2 4-2 6 1 4 4 1 120 5 3 1 1v440l-3 4-3 1v115h88V1512h-93v62l6-2 4 2v49l-1 48-5 2-4-2v-94l-3 3-5 1-9-3-1-1-1-65h-5l-1 66-5 2-4-2-1-60h-249l-1 36-5 2-4-2-1-36H860l-1 80-5 3-5-2-1-1-1-86h-1l-1 278-5 3-5-2-1-1-1-278Zm282 1032v123h100l36-1v-22l-1-3-1-97Z"/><path d="m1165 564 8 3 19 12 24 15 24 15 24 15 24 15 24 15 12 8 10 7 26 16 5 4v5l-5 3-9-3-22-14-24-15-26-16-19-12-26-16-19-12-26-16-19-12-10-7v-7ZM673 944l5 2 1 1v8l-11 17-12 19-12 19-12 19-12 19-3 6 5 2 20 13 20 13 23 15 18 12 7-10 16-26 12-19 15-24 11-17 5-3 5 2 1 1v8l-12 19-15 24-15 24-15 24-11 17-3 3-5 1-5-3-17-10-26-15-26-15-26-15-20-12-8-6v-5l5-3 6 1 24 14 24 14 26 15-8-6-19-12-15-10-6-3-5-2-1-4-5-2-5-4v-5l5-3 7 2 2 1 12-19 15-24 12-19 12-19 11-17Zm-15 150 3 3 2-1Zm5 3 1 2 2-1Zm18 12 3 3 2-1ZM1484 1087l5 2 2 4v274l-3 4-4 1-5-3-1-2v-274l3-5ZM1211 1104h181l5 3v5l-5 3-2 1 2 2v5l-5 3h-176l-5-3v-5l4-2v-2l-4-2v-5ZM1485 1641l5 2 1 1v274l-5 3-5-2-1-1v-274ZM1422 1774l5 2 1 1 1 50v49l-5 3-5-2-1-1-1-49v-50ZM838 1804l5 2 1 1v89h194l5 3v5l-5 3H844v66l-5 3-5-2-1-1v-66h-7l-5-3v-5l5-3h7v-89ZM1211 1883h174l5 3v7l-5 3h-175l-5-3v-6l3-3ZM1156 1884l5 2 2 4v181h218v-85l3-4 4-1 5 3 1 1v143l-3 3-4 1-5-3-1-2v-43h-218v8l-3 3-7 1-5-3-1-1v-8l-20 1 2 2 2 10v29l-1 56-1 29-5 3-5-2-1-1-1-18v-47l1-48-106-1v116l-3 3-9 2-5-3-2-2v-109H839l-5-3v-5l6-4 8-1 1-5 3-1v-2l-4-2v-7l5-3h154l-1-102-2-2v-7l5-3h135v-23l5-5 1-41 3-3Zm-138 86v101h129v-22l-1-3-1-56-1-20Z"/><path d="M1212 1898h173l5 3v5l-5 3h-173l-5-3v-5ZM1213 2148h122l5 3 2 2v5l-5 3h-122l-5-3-2-2v-5ZM1484 2191l5 2 1 1v275l-5 3-6-2-1-1v-274l3-3ZM1210 2207h178l5 3v7l-4 2v2l4 2v7l-5 3h-160l2 9v190h158l5 3v7l-5 3h-174l-5-3v-7l5-3h3v-200l-11-2-2-2v-5l4-2v-2l-4-2v-6l3-3Z"/></svg>